<mxfile host="app.diagrams.net" modified="2024-05-01T07:19:20.875Z" agent="Mozilla/5.0 (Macintosh; Intel Mac OS X 10_15_7) AppleWebKit/537.36 (KHTML, like Gecko) Chrome/124.0.0.0 Safari/537.36" version="24.3.1" etag="0IfJC-uwW5pnGD3Tz6Lq" type="github">
  <diagram name="第 1 页" id="8a-9v8xuM8Dy89i8Rbkq">
    <mxGraphModel>
      <root>
        <mxCell id="0" />
        <mxCell id="1" parent="0" />
      </root>
    </mxGraphModel>
  </diagram>
</mxfile>
